<svg width="40" height="40" viewBox="0 0 40 40" fill="none" xmlns="http://www.w3.org/2000/svg">
<circle cx="20" cy="20" r="20" fill="white"/>
<path fill-rule="evenodd" clip-rule="evenodd" d="M24.9493 7.14509C24.9493 8.3641 24.4109 9.58311 23.651 10.4627C22.8434 11.4349 21.4502 12.1601 20.3418 12.1602C20.2152 12.1602 20.0884 12.1447 20.0093 12.1293C19.9935 12.0676 19.9618 11.8823 19.9618 11.6972C19.9618 10.4627 20.611 9.24366 21.3076 8.47212C22.1943 7.46915 23.6668 6.713 24.9018 6.66669C24.9335 6.80564 24.9493 6.97536 24.9493 7.14509ZM29.305 14.8239C29.3358 14.8042 29.3569 14.7907 29.3667 14.7832C27.7201 12.4842 25.2184 12.4223 24.5216 12.4221C23.457 12.4221 22.5041 12.7903 21.703 13.0997C21.1221 13.3242 20.621 13.5178 20.215 13.5178C19.7671 13.5178 19.2543 13.3158 18.682 13.0904C17.9595 12.8058 17.1422 12.4839 16.241 12.4839C13.2012 12.4839 10.1136 14.9374 10.1136 19.5666C10.1136 22.4522 11.2536 25.492 12.6628 27.4518C13.8818 29.1182 14.9427 30.4762 16.4627 30.4762C17.1835 30.4762 17.712 30.2576 18.2678 30.0277C18.884 29.7728 19.5337 29.504 20.516 29.504C21.5078 29.504 22.1008 29.7563 22.6727 29.9997C23.2055 30.2264 23.72 30.4453 24.5218 30.4453C26.1842 30.4453 27.2768 28.9795 28.3217 27.5135C29.4933 25.847 29.9842 24.2113 30 24.1342C29.905 24.1034 26.7226 22.8535 26.7226 19.3198C26.7226 16.4757 28.8904 15.089 29.305 14.8239Z" fill="black"/>
</svg>
