<svg width="40" height="40" viewBox="0 0 40 40" fill="none" xmlns="http://www.w3.org/2000/svg">
<circle cx="20" cy="20" r="20" fill="white"/>
<path d="M32.5 20.3C32.5 19.4222 32.423 18.5889 32.291 17.7778H19.8638V22.7889H26.9792C26.6603 24.4333 25.7255 25.8222 24.3398 26.7667V30.1H28.5849C31.0703 27.7778 32.5 24.3555 32.5 20.3Z" fill="#4285F4"/>
<path d="M19.8638 33.3333C23.427 33.3333 26.4073 32.1333 28.5849 30.1L24.3398 26.7667C23.1521 27.5667 21.6454 28.0555 19.8638 28.0555C16.4215 28.0555 13.5072 25.7111 12.4624 22.5444H8.08536V25.9778C10.2519 30.3333 14.7059 33.3333 19.8638 33.3333Z" fill="#34A853"/>
<path d="M12.4624 22.5444C12.1874 21.7444 12.0445 20.8889 12.0445 20C12.0445 19.1111 12.1984 18.2556 12.4624 17.4556V14.0222H8.08535C7.18354 15.8222 6.66666 17.8444 6.66666 20C6.66666 22.1556 7.18354 24.1778 8.08535 25.9778L12.4624 22.5444Z" fill="#FBBC05"/>
<path d="M19.8638 11.9444C21.8103 11.9444 23.548 12.6222 24.9227 13.9444L28.6838 10.1444C26.4073 7.98888 23.427 6.66666 19.8638 6.66666C14.7059 6.66666 10.2519 9.66666 8.08536 14.0222L12.4624 17.4555C13.5072 14.2889 16.4215 11.9444 19.8638 11.9444Z" fill="#EA4335"/>
</svg>
