<svg width="40" height="40" viewBox="0 0 40 40" fill="none" xmlns="http://www.w3.org/2000/svg">
<circle cx="20" cy="20" r="20" fill="white"/>
<path fill-rule="evenodd" clip-rule="evenodd" d="M33.3333 8.33334L28.5008 20H23.1508L27.9416 8.33334H33.3333Z" fill="#6001D2"/>
<path fill-rule="evenodd" clip-rule="evenodd" d="M11.6327 14.0583L14.5874 21.5583L17.5587 14.0583H22.3161L14.9713 31.6667H10.1805L12.1586 27L6.66666 14.0583H11.6327Z" fill="#6001D2"/>
<path fill-rule="evenodd" clip-rule="evenodd" d="M21.3897 24.1667C21.3806 24.9429 21.6855 25.6901 22.2353 26.239C22.7851 26.788 23.5334 27.0924 24.3109 27.0833C25.1157 27.0923 25.8903 26.7776 26.4602 26.2102C27.0301 25.6428 27.3474 24.8702 27.3406 24.0667C27.3543 23.2883 27.0512 22.5376 26.5006 21.9863C25.95 21.435 25.1991 21.1303 24.4194 21.1417C23.6152 21.1394 22.8433 21.4574 22.2746 22.0252C21.7059 22.593 21.3874 23.3637 21.3897 24.1667Z" fill="#6001D2"/>
</svg>
