<svg width="40" height="40" viewBox="0 0 40 40" fill="none" xmlns="http://www.w3.org/2000/svg">
<circle cx="20" cy="20" r="20" fill="white"/>
<path fill-rule="evenodd" clip-rule="evenodd" d="M20 8.33334C27.3521 8.33334 33.3333 13.1883 33.3333 19.1558C33.3333 21.4454 32.4799 23.5231 30.7022 25.5602L30.3033 26.0087C29.7169 26.6582 28.9989 27.3327 28.2154 27.9997L27.738 28.3988L27.2482 28.7947L26.7489 29.1856L26.2436 29.5701L25.7353 29.9467L25.2272 30.3138C25.1427 30.3742 25.0584 30.434 24.9743 30.4934L24.2245 31.0134L23.7362 31.3427L23.029 31.8068L22.3618 32.2305L21.7451 32.6084L21.1899 32.9353L20.7068 33.2061L20.4301 33.3529L20.1935 33.4708C20.1216 33.5051 20.0569 33.5344 20 33.5583C18.9561 33.9974 18.7907 33.5868 18.7998 33.2035L18.8061 33.1003L18.8179 33.0024L19.0352 31.6971C19.0802 31.3571 19.1264 30.8283 18.9915 30.4908C18.8427 30.1196 18.2516 29.9271 17.8167 29.8333C11.4156 28.9871 6.66666 24.5058 6.66666 19.1558C6.66666 13.1883 12.6478 8.33334 20 8.33334ZM23.7329 16.2721H22.7881C22.6501 16.2721 22.5382 16.384 22.5382 16.5221V19.9796L19.8664 16.3696L19.84 16.3421L19.8263 16.3308H19.8188L19.805 16.3208H19.7975L19.7838 16.3133H18.7253C18.5872 16.3133 18.4753 16.4253 18.4753 16.5633V22.3833C18.4753 22.5214 18.5872 22.6333 18.7253 22.6333H19.6713C19.8094 22.6333 19.9213 22.5214 19.9213 22.3833V18.8921L22.5869 22.4921L22.6164 22.5276L22.6519 22.5571L22.6669 22.5671H22.6744L22.6869 22.5733H22.7256C22.7477 22.5788 22.7704 22.5817 22.7931 22.5821H23.7329C23.871 22.5821 23.9829 22.4702 23.9829 22.3321V16.5271C23.9842 16.4599 23.9585 16.395 23.9115 16.3471C23.8644 16.2991 23.8001 16.2721 23.7329 16.2721ZM25.1476 16.2833H28.8968L28.9541 16.2899C29.0645 16.3159 29.1467 16.415 29.1467 16.5333V17.4796L29.1401 17.5369C29.1142 17.6474 29.0151 17.7296 28.8968 17.7296H26.3511V18.7108H28.8968L28.9541 18.7174C29.0645 18.7434 29.1467 18.8425 29.1467 18.9608V19.9158L29.1401 19.9732C29.1142 20.0836 29.0151 20.1658 28.8968 20.1658H26.3511V21.1483H28.8968L28.9541 21.1549C29.0645 21.1809 29.1467 21.28 29.1467 21.3983V22.3433L29.1434 22.3936C29.1351 22.443 29.112 22.4892 29.0767 22.5258C29.0296 22.5746 28.9646 22.6021 28.8968 22.6021H25.1476L25.0903 22.5955C24.9983 22.5739 24.9259 22.5015 24.9043 22.4094L24.8977 22.3521V16.5333L24.9043 16.476C24.9302 16.3656 25.0293 16.2833 25.1476 16.2833ZM12.2454 16.2821H11.2956C11.1576 16.2821 11.0457 16.394 11.0457 16.5321V22.3483C11.0457 22.4864 11.1576 22.5983 11.2956 22.5983H15.0448L15.0411 22.6021C15.1791 22.6021 15.291 22.4902 15.291 22.3521V21.4071C15.291 21.269 15.1791 21.1571 15.0411 21.1571H12.4954V16.5321C12.4954 16.394 12.3835 16.2821 12.2454 16.2821ZM16.1015 16.9083C16.1464 16.5496 16.4524 16.2721 16.8232 16.2721C17.2249 16.2721 17.5505 16.5978 17.5505 16.9996V21.8746L17.5449 21.9658C17.5 22.3246 17.194 22.6021 16.8232 22.6021C16.4215 22.6021 16.0958 22.2764 16.0958 21.8746V16.9996L16.1015 16.9083Z" fill="#06C755"/>
</svg>
