<svg width="40" height="40" viewBox="0 0 40 40" fill="none" xmlns="http://www.w3.org/2000/svg">
<circle cx="20" cy="20" r="20" fill="white"/>
<path d="M30.8316 29.1667H26.6906V22.6704C26.6906 21.1213 26.663 19.1271 24.5369 19.1271C22.3801 19.1271 22.0501 20.8148 22.0501 22.5576V29.1662H17.9092V15.8072H21.8845V17.6328H21.9402C22.7496 16.2465 24.2601 15.4154 25.8624 15.475C30.0594 15.475 30.8333 18.2404 30.8333 21.8382L30.8316 29.1667Z" fill="black"/>
<path d="M13.2369 13.9811C13.2366 13.9811 13.2365 13.9811 13.2364 13.9811C11.9181 13.9811 10.8333 12.8945 10.8333 11.5739C10.8333 10.2533 11.9181 9.16666 13.2364 9.16666C14.5545 9.16666 15.6392 10.2531 15.6394 11.5734C15.6394 11.5736 15.6394 11.5737 15.6394 11.5739C15.6394 12.8943 14.5549 13.9809 13.2369 13.9811Z" fill="black"/>
<path d="M15.3073 29.1667H11.1621V15.8072H15.3073V29.1667Z" fill="black"/>
</svg>
