<svg width="40" height="40" viewBox="0 0 40 40" fill="none" xmlns="http://www.w3.org/2000/svg">
<circle cx="20" cy="20" r="20" fill="white"/>
<path d="M30.6033 14.5605C30.6196 14.7956 30.6196 15.0307 30.6196 15.2679C30.6196 22.4965 25.1161 30.8334 15.0529 30.8334V30.829C12.0802 30.8334 9.16923 29.9819 6.66669 28.3765C7.09894 28.4285 7.53337 28.4545 7.96887 28.4556C10.4324 28.4578 12.8255 27.6312 14.7636 26.1092C12.4225 26.0648 10.3696 24.5385 9.6524 22.3102C10.4725 22.4684 11.3175 22.4359 12.1224 22.216C9.57007 21.7003 7.73379 19.458 7.73379 16.8538C7.73379 16.83 7.73379 16.8072 7.73379 16.7845C8.4943 17.208 9.34581 17.4431 10.2168 17.4691C7.81287 15.8626 7.07186 12.6648 8.52355 10.1647C11.3013 13.5824 15.3996 15.6601 19.7991 15.88C19.3581 13.9799 19.9605 11.9889 21.3818 10.6532C23.5854 8.58201 27.051 8.68817 29.1224 10.8904C30.3476 10.6489 31.522 10.1993 32.5967 9.56236C32.1883 10.8287 31.3335 11.9044 30.1916 12.5879C31.2761 12.4601 32.3356 12.1698 33.3334 11.7267C32.5988 12.8273 31.6737 13.786 30.6033 14.5605Z" fill="black"/>
</svg>
