<svg width="40" height="40" viewBox="0 0 40 40" fill="none" xmlns="http://www.w3.org/2000/svg">
<circle cx="20" cy="20" r="20" fill="black"/>
<path d="M30.6033 14.5605C30.6195 14.7956 30.6195 15.0307 30.6195 15.2679C30.6195 22.4965 25.1161 30.8333 15.0529 30.8333V30.829C12.0802 30.8333 9.1692 29.9819 6.66666 28.3765C7.09891 28.4285 7.53334 28.4545 7.96884 28.4556C10.4324 28.4577 12.8255 27.6312 14.7636 26.1092C12.4225 26.0648 10.3695 24.5385 9.65237 22.3102C10.4725 22.4684 11.3175 22.4359 12.1224 22.216C9.57004 21.7003 7.73376 19.458 7.73376 16.8538C7.73376 16.83 7.73376 16.8072 7.73376 16.7845C8.49427 17.208 9.34578 17.4431 10.2168 17.4691C7.81284 15.8626 7.07183 12.6648 8.52352 10.1646C11.3012 13.5823 15.3995 15.66 19.799 15.8799C19.3581 13.9799 19.9604 11.9889 21.3818 10.6532C23.5853 8.58199 27.051 8.68815 29.1223 10.8904C30.3476 10.6489 31.522 10.1993 32.5966 9.56234C32.1882 10.8287 31.3335 11.9044 30.1916 12.5879C31.276 12.4601 32.3356 12.1698 33.3333 11.7267C32.5988 12.8273 31.6736 13.786 30.6033 14.5605Z" fill="white"/>
</svg>
